<mxfile host="app.diagrams.net" agent="Mozilla/5.0 (X11; Linux x86_64) AppleWebKit/537.36 (KHTML, like Gecko) Chrome/136.0.0.0 Safari/537.36" version="26.2.14">
  <diagram name="Page-1" id="74e2e168-ea6b-b213-b513-2b3c1d86103e">
    <mxGraphModel dx="1426" dy="793" grid="1" gridSize="10" guides="1" tooltips="1" connect="1" arrows="1" fold="1" page="1" pageScale="1" pageWidth="1100" pageHeight="850" background="none" math="0" shadow="0">
      <root>
        <mxCell id="0" />
        <mxCell id="1" parent="0" />
        <mxCell id="BGG6qYtyQpqSNTjOQuZl-3" value="" style="edgeStyle=orthogonalEdgeStyle;rounded=0;orthogonalLoop=1;jettySize=auto;html=1;" edge="1" parent="1" source="BGG6qYtyQpqSNTjOQuZl-1" target="BGG6qYtyQpqSNTjOQuZl-2">
          <mxGeometry relative="1" as="geometry">
            <Array as="points">
              <mxPoint x="200" y="385" />
              <mxPoint x="200" y="260" />
            </Array>
          </mxGeometry>
        </mxCell>
        <mxCell id="BGG6qYtyQpqSNTjOQuZl-10" value="" style="edgeStyle=orthogonalEdgeStyle;rounded=0;orthogonalLoop=1;jettySize=auto;html=1;" edge="1" parent="1" source="BGG6qYtyQpqSNTjOQuZl-7" target="BGG6qYtyQpqSNTjOQuZl-9">
          <mxGeometry relative="1" as="geometry">
            <Array as="points">
              <mxPoint x="510" y="510" />
            </Array>
          </mxGeometry>
        </mxCell>
        <mxCell id="BGG6qYtyQpqSNTjOQuZl-1" value="Kirish&lt;br&gt;&lt;br&gt;Telefon raqam&lt;br&gt;Parol" style="rounded=1;whiteSpace=wrap;html=1;" vertex="1" parent="1">
          <mxGeometry x="40" y="350" width="130" height="70" as="geometry" />
        </mxCell>
        <mxCell id="BGG6qYtyQpqSNTjOQuZl-15" value="" style="edgeStyle=orthogonalEdgeStyle;rounded=0;orthogonalLoop=1;jettySize=auto;html=1;" edge="1" parent="1" source="BGG6qYtyQpqSNTjOQuZl-2" target="BGG6qYtyQpqSNTjOQuZl-14">
          <mxGeometry relative="1" as="geometry" />
        </mxCell>
        <mxCell id="BGG6qYtyQpqSNTjOQuZl-16" value="" style="edgeStyle=orthogonalEdgeStyle;rounded=0;orthogonalLoop=1;jettySize=auto;html=1;" edge="1" parent="1" source="BGG6qYtyQpqSNTjOQuZl-2" target="BGG6qYtyQpqSNTjOQuZl-14">
          <mxGeometry relative="1" as="geometry" />
        </mxCell>
        <mxCell id="BGG6qYtyQpqSNTjOQuZl-17" value="" style="edgeStyle=orthogonalEdgeStyle;rounded=0;orthogonalLoop=1;jettySize=auto;html=1;" edge="1" parent="1" source="BGG6qYtyQpqSNTjOQuZl-2" target="BGG6qYtyQpqSNTjOQuZl-14">
          <mxGeometry relative="1" as="geometry" />
        </mxCell>
        <mxCell id="BGG6qYtyQpqSNTjOQuZl-18" style="edgeStyle=orthogonalEdgeStyle;rounded=0;orthogonalLoop=1;jettySize=auto;html=1;exitX=1;exitY=0.5;exitDx=0;exitDy=0;entryX=0;entryY=0.5;entryDx=0;entryDy=0;" edge="1" parent="1" source="BGG6qYtyQpqSNTjOQuZl-2" target="BGG6qYtyQpqSNTjOQuZl-19">
          <mxGeometry relative="1" as="geometry">
            <mxPoint x="410" y="340" as="targetPoint" />
            <Array as="points">
              <mxPoint x="400" y="260" />
              <mxPoint x="400" y="340" />
            </Array>
          </mxGeometry>
        </mxCell>
        <mxCell id="BGG6qYtyQpqSNTjOQuZl-2" value="Statistika" style="whiteSpace=wrap;html=1;rounded=1;" vertex="1" parent="1">
          <mxGeometry x="230" y="230" width="120" height="60" as="geometry" />
        </mxCell>
        <mxCell id="BGG6qYtyQpqSNTjOQuZl-13" value="" style="edgeStyle=orthogonalEdgeStyle;rounded=0;orthogonalLoop=1;jettySize=auto;html=1;" edge="1" parent="1" source="BGG6qYtyQpqSNTjOQuZl-9" target="BGG6qYtyQpqSNTjOQuZl-12">
          <mxGeometry relative="1" as="geometry" />
        </mxCell>
        <mxCell id="BGG6qYtyQpqSNTjOQuZl-9" value="Hisoblagichlar" style="whiteSpace=wrap;html=1;rounded=1;" vertex="1" parent="1">
          <mxGeometry x="440" y="480" width="120" height="60" as="geometry" />
        </mxCell>
        <mxCell id="BGG6qYtyQpqSNTjOQuZl-11" value="" style="edgeStyle=orthogonalEdgeStyle;rounded=0;orthogonalLoop=1;jettySize=auto;html=1;" edge="1" parent="1" source="BGG6qYtyQpqSNTjOQuZl-1" target="BGG6qYtyQpqSNTjOQuZl-7">
          <mxGeometry relative="1" as="geometry">
            <mxPoint x="170" y="385" as="sourcePoint" />
            <mxPoint x="270" y="510" as="targetPoint" />
            <Array as="points">
              <mxPoint x="200" y="385" />
              <mxPoint x="200" y="510" />
            </Array>
          </mxGeometry>
        </mxCell>
        <mxCell id="BGG6qYtyQpqSNTjOQuZl-7" value="Tashkilotlar" style="whiteSpace=wrap;html=1;rounded=1;" vertex="1" parent="1">
          <mxGeometry x="230" y="480" width="120" height="60" as="geometry" />
        </mxCell>
        <mxCell id="BGG6qYtyQpqSNTjOQuZl-12" value="Invoyslar" style="whiteSpace=wrap;html=1;rounded=1;" vertex="1" parent="1">
          <mxGeometry x="640" y="480" width="120" height="60" as="geometry" />
        </mxCell>
        <mxCell id="BGG6qYtyQpqSNTjOQuZl-14" value="Tamirlash jarayonidagi hisoblagichlar&lt;br&gt;&lt;br&gt;har bir hisoblagichning xizmat ko&#39;rsatish statusi" style="whiteSpace=wrap;html=1;rounded=1;" vertex="1" parent="1">
          <mxGeometry x="450" y="60" width="120" height="180" as="geometry" />
        </mxCell>
        <mxCell id="BGG6qYtyQpqSNTjOQuZl-19" value="Kelgan invoyslar" style="rounded=1;whiteSpace=wrap;html=1;" vertex="1" parent="1">
          <mxGeometry x="460" y="310" width="120" height="60" as="geometry" />
        </mxCell>
      </root>
    </mxGraphModel>
  </diagram>
</mxfile>
